<svg xmlns="http://www.w3.org/2000/svg" xmlns:xlink="http://www.w3.org/1999/xlink" width="500" zoomAndPan="magnify" viewBox="0 0 375 374.999991" height="500" preserveAspectRatio="xMidYMid meet" version="1.0"><defs><g/><clipPath id="1b3cd1b8bd"><rect x="0" width="158" y="0" height="307"/></clipPath><clipPath id="3f059f16e1"><rect x="0" width="375" y="0" height="375"/></clipPath></defs><g transform="matrix(1, 0, 0, 1, 0, 0)"><g clip-path="url(#3f059f16e1)"><path fill="#545454" d="M 187.5 375 C 84.113281 375 0 290.886719 0 187.5 C 0 84.113281 84.113281 0 187.5 0 C 290.886719 0 375 84.113281 375 187.5 C 375 290.886719 290.886719 375 187.5 375 Z M 187.5 3.324219 C 85.945312 3.324219 3.324219 85.945312 3.324219 187.5 C 3.324219 289.054688 85.945312 371.671875 187.5 371.671875 C 289.054688 371.671875 371.671875 289.054688 371.671875 187.5 C 371.671875 85.945312 289.054688 3.324219 187.5 3.324219 Z M 187.5 3.324219 " fill-opacity="1" fill-rule="nonzero"/><g transform="matrix(1, 0, 0, 1, 110, 34)"><g clip-path="url(#1b3cd1b8bd)"><g fill="#545454" fill-opacity="1"><g transform="translate(2.837168, 220.785813)"><g><path d="M 60.453125 -2.265625 L 63.40625 -2.265625 L 63.40625 0 L 13.640625 0 L 13.640625 -2.265625 L 16.59375 -2.265625 C 20.53125 -2.265625 23.898438 -3.664062 26.703125 -6.46875 C 29.503906 -9.28125 30.984375 -12.65625 31.140625 -16.59375 L 31.140625 -142.71875 C 30.984375 -146.65625 29.503906 -149.984375 26.703125 -152.703125 C 23.898438 -155.429688 20.53125 -156.796875 16.59375 -156.796875 L 13.640625 -156.796875 L 13.640625 -159.078125 L 63.40625 -159.078125 L 63.40625 -156.796875 L 60.453125 -156.796875 C 56.515625 -156.796875 53.140625 -155.429688 50.328125 -152.703125 C 47.523438 -149.984375 46.050781 -146.65625 45.90625 -142.71875 L 45.90625 -16.59375 C 45.90625 -12.65625 47.34375 -9.28125 50.21875 -6.46875 C 53.101562 -3.664062 56.515625 -2.265625 60.453125 -2.265625 Z M 151.796875 0 L 142.03125 0 C 126.582031 0 115.21875 -4.316406 107.9375 -12.953125 L 53.171875 -79.078125 L 106.8125 -146.34375 C 108.019531 -147.863281 108.625 -149.226562 108.625 -150.4375 C 108.625 -151.644531 108.394531 -152.707031 107.9375 -153.625 C 106.726562 -155.894531 104.535156 -157.03125 101.359375 -157.03125 L 99.078125 -157.03125 L 99.078125 -159.078125 L 147.03125 -159.078125 L 147.03125 -157.03125 L 146.125 -157.03125 C 136.125 -157.03125 127.941406 -153.46875 121.578125 -146.34375 L 68.171875 -84.53125 L 130.21875 -11.59375 C 136.269531 -5.53125 143.460938 -2.421875 151.796875 -2.265625 Z M 151.796875 0 "/></g></g></g></g></g></g></g></svg>